<svg width="14" height="13" viewBox="0 0 14 13" fill="none" xmlns="http://www.w3.org/2000/svg">
<path d="M6.38611 0.927074C6.68541 0.00575399 7.98881 0.00575399 8.28821 0.927074L9.17531 3.65735C9.30921 4.06937 9.69311 4.34834 10.1263 4.34834H12.9971C13.9658 4.34834 14.3686 5.58794 13.5849 6.15735L11.2624 7.84482C10.9119 8.09943 10.7652 8.55083 10.8991 8.96283L11.7862 11.6932C12.0856 12.6145 11.0311 13.3806 10.2474 12.8112L7.92491 11.1238C7.57441 10.8691 7.09981 10.8691 6.74931 11.1238L4.42691 12.8112C3.64321 13.3806 2.58871 12.6145 2.88811 11.6932L3.77521 8.96283C3.90901 8.55083 3.76241 8.09943 3.41191 7.84482L1.08941 6.15734C0.305708 5.58794 0.708507 4.34834 1.67721 4.34834H4.54791C4.98121 4.34834 5.36511 4.06937 5.49901 3.65735L6.38611 0.927074Z" fill="#FFA858"/>
</svg>
